<mxfile host="app.diagrams.net" modified="2021-01-19T01:49:07.124Z" agent="5.0 (Windows NT 10.0; Win64; x64) AppleWebKit/537.36 (KHTML, like Gecko) Chrome/83.0.4103.97 Safari/537.36" etag="rawXNTd-YgW0-sv2MyJE" version="14.2.4" type="github">
  <diagram id="F_hVoCZmNGquJF9Me4fh" name="第 1 页">
    <mxGraphModel dx="1038" dy="548" grid="1" gridSize="10" guides="1" tooltips="1" connect="1" arrows="1" fold="1" page="1" pageScale="1" pageWidth="1200" pageHeight="1920" math="0" shadow="0">
      <root>
        <mxCell id="0" />
        <mxCell id="1" parent="0" />
        <mxCell id="4RfR12TqWc12ZuK0CRtm-2" value="SpringApplication" style="shape=umlLifeline;perimeter=lifelinePerimeter;whiteSpace=wrap;html=1;container=1;collapsible=0;recursiveResize=0;outlineConnect=0;fillColor=#ffe6cc;strokeColor=#d79b00;fontSize=14;fontFamily=Verdana;" vertex="1" parent="1">
          <mxGeometry x="140" y="100" width="170" height="310" as="geometry" />
        </mxCell>
        <mxCell id="4RfR12TqWc12ZuK0CRtm-3" value="Springboot 启动流程" style="rounded=0;whiteSpace=wrap;html=1;fontFamily=Verdana;fontSize=14;" vertex="1" parent="1">
          <mxGeometry x="110" y="20" width="210" height="40" as="geometry" />
        </mxCell>
      </root>
    </mxGraphModel>
  </diagram>
</mxfile>
